{
  "accessors": [
    {
      "bufferView": 0,
      "componentType": 5126,
      "count": 2395,
      "max": [
        36.45943832397461,
        21.239614486694336,
        33.452392578125
      ],
      "min": [
        -31.859420776367188,
        -21.239614486694336,
        0.0
      ],
      "type": "VEC3"
    },
    {
      "bufferView": 0,
      "byteOffset": 12,
      "componentType": 5126,
      "count": 2395,
      "type": "VEC3"
    },
    {
      "bufferView": 1,
      "componentType": 5125,
      "count": 12096,
      "type": "SCALAR"
    }
  ],
  "asset": {
    "version": "2.0"
  },
  "bufferViews": [
    {
      "buffer": 0,
      "byteLength": 76640,
      "byteStride": 32,
      "target": 34962
    },
    {
      "buffer": 0,
      "byteLength": 48384,
      "byteOffset": 76640,
      "target": 34963
    }
  ],
  "buffers": [
    {
      "byteLength": 125024,
      "uri": "Teapot2.bin"
    }
  ],
  "materials": [
    {
      "name": "fallback Material",
      "pbrMetallicRoughness": {
        "baseColorFactor": [
          0.3411764705882353,
          0.8823529411764706,
          0.3411764705882353,
          1.0
        ]
      }
    }
  ],
  "meshes": [
    {
      "name": "Teapot001",
      "primitives": [
        {
          "attributes": {
            "NORMAL": 1,
            "POSITION": 0
          },
          "indices": 2,
          "material": 0,
          "mode": 4
        }
      ]
    }
  ],
  "nodes": [
    {
      "matrix": [
        0.0254,
        0.0,
        0.0,
        0.0,
        0.0,
        0.0254,
        0.0,
        0.0,
        0.0,
        0.0,
        0.0254,
        0.0,
        0.0,
        0.0,
        0.0,
        1.0
      ],
      "mesh": 0,
      "name": "Teapot001"
    },
    {
      "children": [
        0
      ],
      "matrix": [
        0.009999999776482582,
        0.0,
        0.0,
        0.0,
        0.0,
        0.0,
        -0.009999999776482582,
        0.0,
        0.0,
        0.009999999776482582,
        0.0,
        0.0,
        0.0,
        0.0,
        0.0,
        1.0
      ]
    }
  ],
  "scenes": [
    {
      "nodes": [
        1
      ]
    }
  ]
}
